<svg width="32" height="32" viewBox="0 0 32 32" xmlns="http://www.w3.org/2000/svg">
  <defs>
    <linearGradient id="neonGradient" x1="0%" y1="0%" x2="100%" y2="100%">
      <stop offset="0%" style="stop-color:#ff00ff;stop-opacity:1" />
      <stop offset="50%" style="stop-color:#00ffff;stop-opacity:1" />
      <stop offset="100%" style="stop-color:#ffff00;stop-opacity:1" />
    </linearGradient>
    <filter id="glow">
      <feGaussianBlur stdDeviation="1" result="coloredBlur"/>
      <feMerge> 
        <feMergeNode in="coloredBlur"/>
        <feMergeNode in="SourceGraphic"/>
      </feMerge>
    </filter>
  </defs>
  
  <!-- Background -->
  <rect width="32" height="32" fill="#0a0e2c" rx="4"/>
  
  <!-- Tetris blocks pattern -->
  <!-- T-piece -->
  <rect x="8" y="4" width="4" height="4" fill="#ff00ff" filter="url(#glow)"/>
  <rect x="12" y="4" width="4" height="4" fill="#ff00ff" filter="url(#glow)"/>
  <rect x="16" y="4" width="4" height="4" fill="#ff00ff" filter="url(#glow)"/>
  <rect x="12" y="8" width="4" height="4" fill="#ff00ff" filter="url(#glow)"/>
  
  <!-- L-piece -->
  <rect x="4" y="14" width="4" height="4" fill="#00ffff" filter="url(#glow)"/>
  <rect x="4" y="18" width="4" height="4" fill="#00ffff" filter="url(#glow)"/>
  <rect x="4" y="22" width="4" height="4" fill="#00ffff" filter="url(#glow)"/>
  <rect x="8" y="22" width="4" height="4" fill="#00ffff" filter="url(#glow)"/>
  
  <!-- O-piece -->
  <rect x="20" y="14" width="4" height="4" fill="#ffff00" filter="url(#glow)"/>
  <rect x="24" y="14" width="4" height="4" fill="#ffff00" filter="url(#glow)"/>
  <rect x="20" y="18" width="4" height="4" fill="#ffff00" filter="url(#glow)"/>
  <rect x="24" y="18" width="4" height="4" fill="#ffff00" filter="url(#glow)"/>
  
  <!-- S-piece -->
  <rect x="12" y="24" width="4" height="4" fill="#39ff14" filter="url(#glow)"/>
  <rect x="16" y="24" width="4" height="4" fill="#39ff14" filter="url(#glow)"/>
  <rect x="16" y="28" width="4" height="4" fill="#39ff14" filter="url(#glow)"/>
  <rect x="20" y="28" width="4" height="4" fill="#39ff14" filter="url(#glow)"/>
</svg>